<svg xmlns="http://www.w3.org/2000/svg" width="120" height="120" viewBox="0 0 120 120" style="overflow:visible"><defs><radialGradient id="sg-avkyvd" cx="50%" cy="50%" r="50%"><stop offset="0%" stop-color="hsla(22.000000000000004, 98.34000000000002%, 55.192%, 0.95)"/><stop offset="100%" stop-color="hsla(22.000000000000004, 89.4%, 49.192%, 0.85)"/></radialGradient></defs><line x1="60.0" y1="10.625" x2="60.0" y2="7.225000000000001" stroke="hsl(22.000000000000004, 89.4%, 49.192%)" stroke-width="3.0" stroke-linecap="round"/><line x1="109.375" y1="60.0" x2="112.775" y2="60.0" stroke="hsl(22.000000000000004, 89.4%, 49.192%)" stroke-width="3.0" stroke-linecap="round"/><line x1="60.0" y1="109.375" x2="60.0" y2="112.775" stroke="hsl(22.000000000000004, 89.4%, 49.192%)" stroke-width="3.0" stroke-linecap="round"/><line x1="10.625" y1="60.00000000000001" x2="7.225000000000001" y2="60.00000000000001" stroke="hsl(22.000000000000004, 89.4%, 49.192%)" stroke-width="3.0" stroke-linecap="round"/><circle cx="60.0" cy="60.0" r="33.75" fill="hsl(22.000000000000004, 4%, 5%)"/><path d="M60.0,28.25L69.20476252409588,50.795237475904116L91.75,60.0L69.20476252409588,69.20476252409588L60.0,91.75L50.795237475904116,69.20476252409588L28.25,60.00000000000001L50.795237475904116,50.795237475904116Z" fill="url(#sg-avkyvd)" stroke="none"/><path d="M60.0,28.25L69.20476252409588,50.795237475904116L91.75,60.0L69.20476252409588,69.20476252409588L60.0,91.75L50.795237475904116,69.20476252409588L28.25,60.00000000000001L50.795237475904116,50.795237475904116Z" fill="none" stroke="hsl(22.000000000000004, 89.4%, 68.11200000000001%)" stroke-width="1.0" stroke-linejoin="round"/><path d="M27.493093734000233,40.07974222020445 A38.125,38.125 0 0,1 92.50690626599976,40.07974222020445 L88.7766055469506,42.36567344083673 A33.75,33.75 0 0,0 31.223394453049387,42.36567344083672 Z" fill="hsla(22.000000000000004, 80.46000000000001%, 54.868%, 0.95)"/><path d="M22.483832768419944,37.01006315249825 A44.0,44.0 0 0,1 97.51616723158006,37.010063152498255 L93.7858665125309,39.295994373130526 A39.625,39.625 0 0,0 26.2141334874691,39.295994373130526 Z" fill="hsla(22.000000000000004, 80.46000000000001%, 54.868%, 0.95)"/><path d="M93.50490242023743,41.80832226510243 A38.125,38.125 0 0,1 60.99799615423766,98.11193551469313 L60.88347200539072,93.73843471792506 A33.75,33.75 0 0,0 89.66007755234133,43.89589184123822 Z" fill="hsla(22.000000000000004, 8.940000000000001%, 11.352%, 0.9)"/><path d="M98.66795295712647,39.00501454857723 A44.0,44.0 0 0,1 61.15178572554642,103.98492229892452 L61.03726157669947,99.61142150215645 A39.625,39.625 0 0,0 94.82312808923038,41.092584124713014 Z" fill="hsla(22.000000000000004, 8.940000000000001%, 11.352%, 0.9)"/><path d="M59.00200384576234,98.11193551469313 A38.125,38.125 0 0,1 26.49509757976257,41.80832226510243 L30.33992244765867,43.89589184123822 A33.75,33.75 0 0,0 59.116527994609285,93.73843471792506 Z" fill="hsla(22.000000000000004, 8.940000000000001%, 11.352%, 0.9)"/><path d="M58.84821427445359,103.98492229892452 A44.0,44.0 0 0,1 21.332047042873526,39.00501454857723 L25.17687191076962,41.092584124713014 A39.625,39.625 0 0,0 58.96273842330053,99.61142150215645 Z" fill="hsla(22.000000000000004, 8.940000000000001%, 11.352%, 0.9)"/><path d="M23.998743750314844,33.84355627298494 A44.5,44.5 0 0,1 25.417004715164794,31.995242598282235 L34.159896781555716,39.07509699759291 A33.25,33.25 0 0,0 33.100184937033,40.45614036127526 Z" fill="hsl(22.000000000000004, 4%, 5%)"/><path d="M27.454760277946917,29.651072977218814 A44.5,44.5 0 0,1 29.087702514574616,27.989378884930026 L36.902609182238336,36.08195163873985 A33.25,33.25 0 0,0 35.682489421162586,37.32355452792192 Z" fill="hsl(22.000000000000004, 4%, 5%)"/><path d="M31.395951368949,25.911022281205476 A44.5,44.5 0 0,1 33.21923146973385,24.460719802895476 L39.98965048019439,33.445369290927516 A33.25,33.25 0 0,0 38.62731197792257,34.52902226629398 Z" fill="hsl(22.000000000000004, 4%, 5%)"/><path d="M35.763562941831296,22.679159726428637 A44.5,44.5 0 0,1 37.750000000000014,21.461869531592477 L43.37500000000001,31.204655324167412 A33.25,33.25 0 0,0 41.89075208575035,32.11420361581465 Z" fill="hsl(22.000000000000004, 4%, 5%)"/><path d="M40.49248396788605,20.00366493968707 A44.5,44.5 0 0,1 42.61246478222732,19.03753402136641 L47.00818997773165,29.393213622706362 A33.25,33.25 0 0,0 45.42415936926317,30.1150979605527 Z" fill="hsl(22.000000000000004, 4%, 5%)"/><path d="M45.51221712665653,17.9244233858304 A44.5,44.5 0 0,1 47.73413766614354,17.22385453074481 L50.83505791908478,28.038048610050897 A33.25,33.25 0 0,0 49.17485886429954,28.561507361322715 Z" fill="hsl(22.000000000000004, 4%, 5%)"/><path d="M50.74792975860971,16.472431767345647 A44.5,44.5 0 0,1 53.038666305709725,16.04786884351637 L54.79855403741232,27.159362675211668 A33.25,33.25 0 0,0 53.0869362803095,27.476592275600964 Z" fill="hsl(22.000000000000004, 4%, 5%)"/><path d="M56.12156944772921,15.66933593491732 A44.5,44.5 0 0,1 58.44697239673871,15.527108197650236 L58.83959173464184,26.770255001615062 A33.25,33.25 0 0,0 57.102071553640364,26.876526288449462 Z" fill="hsl(22.000000000000004, 4%, 5%)"/><path d="M61.5530276032613,15.527108197650236 A44.5,44.5 0 0,1 63.878430552270785,15.66933593491732 L62.897928446359636,26.876526288449462 A33.25,33.25 0 0,0 61.160408265358164,26.770255001615062 Z" fill="hsl(22.000000000000004, 4%, 5%)"/><path d="M66.96133369429027,16.04786884351637 A44.5,44.5 0 0,1 69.2520702413903,16.472431767345654 L66.9130637196905,27.476592275600964 A33.25,33.25 0 0,0 65.20144596258768,27.159362675211668 Z" fill="hsl(22.000000000000004, 4%, 5%)"/><path d="M72.26586233385646,17.22385453074481 A44.5,44.5 0 0,1 74.48778287334348,17.92442338583041 L70.82514113570046,28.561507361322718 A33.25,33.25 0 0,0 69.16494208091522,28.038048610050897 Z" fill="hsl(22.000000000000004, 4%, 5%)"/><path d="M77.38753521777268,19.037534021366405 A44.5,44.5 0 0,1 79.50751603211395,20.00366493968707 L74.57584063073682,30.115097960552696 A33.25,33.25 0 0,0 72.99181002226835,29.39321362270636 Z" fill="hsl(22.000000000000004, 4%, 5%)"/><path d="M82.25,21.461869531592484 A44.5,44.5 0 0,1 84.2364370581687,22.67915972642863 L78.10924791424965,32.114203615814645 A33.25,33.25 0 0,0 76.625,31.204655324167415 Z" fill="hsl(22.000000000000004, 4%, 5%)"/><path d="M86.78076853026616,24.46071980289547 A44.5,44.5 0 0,1 88.604048631051,25.911022281205476 L81.37268802207743,34.52902226629398 A33.25,33.25 0 0,0 80.0103495198056,33.445369290927516 Z" fill="hsl(22.000000000000004, 4%, 5%)"/><path d="M90.91229748542537,27.989378884930026 A44.5,44.5 0 0,1 92.54523972205308,29.651072977218817 L84.31751057883741,37.32355452792193 A33.25,33.25 0 0,0 83.09739081776166,36.08195163873985 Z" fill="hsl(22.000000000000004, 4%, 5%)"/><path d="M94.5829952848352,31.995242598282235 A44.5,44.5 0 0,1 96.00125624968516,33.84355627298494 L86.89981506296701,40.45614036127527 A33.25,33.25 0 0,0 85.84010321844428,39.07509699759291 Z" fill="hsl(22.000000000000004, 4%, 5%)"/><path d="M100.65277286509574,41.900219383126895 A44.5,44.5 0 0,1 101.54432897912548,44.05262624523414 L91.04154918103195,48.08426567761877 A33.25,33.25 0 0,0 90.37538646661648,46.476006617729645 Z" fill="hsl(22.000000000000004, 4%, 5%)"/><path d="M102.55556164035508,46.98945913983822 A44.5,44.5 0 0,1 103.17815981928184,49.23447564581478 L92.26233289867687,51.95609697131105 A33.25,33.25 0 0,0 91.79713313577093,50.278640817969006 Z" fill="hsl(22.000000000000004, 4%, 5%)"/><path d="M103.82394500904326,52.2726560938216 A44.5,44.5 0 0,1 104.16830374803882,54.576814218470936 L93.00215954207395,55.947844331778846 A33.25,33.25 0 0,0 92.74485778765592,54.22619809257456 Z" fill="hsl(22.000000000000004, 4%, 5%)"/><path d="M104.43901429657853,57.671049947189 A44.5,44.5 0 0,1 104.5,60.0 L93.25,60.0 A33.25,33.25 0 0,0 93.20443203058957,58.25982945492212 Z" fill="hsl(22.000000000000004, 4%, 5%)"/><path d="M104.39160023656217,63.10416308161358 A44.5,44.5 0 0,1 104.16830374803882,65.42318578152906 L93.00215954207395,64.05215566822116 A33.25,33.25 0 0,0 93.16900467113916,62.319402751992165 Z" fill="hsl(22.000000000000004, 4%, 5%)"/><path d="M103.68240966342105,68.49100029425624 A44.5,44.5 0 0,1 103.17815981928184,70.76552435418522 L92.26233289867687,68.04390302868896 A33.25,33.25 0 0,0 92.63910384963484,66.34439909627011 Z" fill="hsl(22.000000000000004, 4%, 5%)"/><path d="M102.32201497513432,73.75125624968516 A44.5,44.5 0 0,1 101.54432897912548,75.94737375476586 L91.04154918103195,71.91573432238124 A33.25,33.25 0 0,0 91.62262916681385,70.27481506296701 Z" fill="hsl(22.000000000000004, 4%, 5%)"/><path d="M100.33069652313092,78.80651264746112 A44.5,44.5 0 0,1 99.29116788222225,80.89148454397214 L89.35800746255933,75.60992946263087 A33.25,33.25 0 0,0 90.1347339189686,74.05205720287826 Z" fill="hsl(22.000000000000004, 4%, 5%)"/><path d="M97.73814027896096,83.58140725837762 A44.5,44.5 0 0,1 96.45226597086014,85.52415141762155 L87.23680547260898,79.07141650867229 A33.25,33.25 0 0,0 88.19759919720116,77.61981553575407 Z" fill="hsl(22.000000000000004, 4%, 5%)"/><path d="M94.5829952848352,88.00475740171777 A44.5,44.5 0 0,1 93.06994473374405,89.77631198296919 L84.70956544712337,82.24859266143204 A33.25,33.25 0 0,0 85.84010321844428,80.92490300240709 Z" fill="hsl(22.000000000000004, 4%, 5%)"/><path d="M90.91229748542537,92.01062111506997 A44.5,44.5 0 0,1 89.19462679007758,93.58457631991335 L81.81396271393436,85.09409354240717 A33.25,33.25 0 0,0 83.09739081776166,83.91804836126015 Z" fill="hsl(22.000000000000004, 4%, 5%)"/><path d="M86.78076853026616,95.53928019710453 A44.5,44.5 0 0,1 84.88408420444823,96.89217197869937 L78.59316404040233,87.56549928745514 A33.25,33.25 0 0,0 80.0103495198056,86.55463070907248 Z" fill="hsl(22.000000000000004, 4%, 5%)"/><path d="M82.25,98.53813046840752 A44.5,44.5 0 0,1 80.20257723840983,99.64979032638237 L75.09518411633994,89.62596692926323 A33.25,33.25 0 0,0 76.625,88.79534467583258 Z" fill="hsl(22.000000000000004, 4%, 5%)"/><path d="M77.38753521777268,100.96246597863359 A44.5,44.5 0 0,1 75.21989637799226,101.81632162497291 L71.37216976557849,91.24477964113146 A33.25,33.25 0 0,0 72.99181002226835,90.60678637729364 Z" fill="hsl(22.000000000000004, 4%, 5%)"/><path d="M72.26586233385646,102.7761454692552 A44.5,44.5 0 0,1 70.01032191830198,103.35946788294297 L67.4796225569335,92.39780465410908 A33.25,33.25 0 0,0 69.16494208091522,91.9619513899491 Z" fill="hsl(22.000000000000004, 4%, 5%)"/><path d="M66.96133369429027,103.95213115648363 A44.5,44.5 0 0,1 64.65151661541057,104.25622434388816 L63.475571403649475,93.06785302099509 A33.25,33.25 0 0,0 65.20144596258768,92.84063732478833 Z" fill="hsl(22.000000000000004, 4%, 5%)"/><path d="M55.348483384589414,104.25622434388816 A44.5,44.5 0 0,1 53.038666305709725,103.95213115648363 L54.79855403741232,92.84063732478833 A33.25,33.25 0 0,0 56.52442859635052,93.06785302099509 Z" fill="hsl(22.000000000000004, 4%, 5%)"/><path d="M49.989678081698,103.35946788294297 A44.5,44.5 0 0,1 47.73413766614354,102.7761454692552 L50.83505791908478,91.9619513899491 A33.25,33.25 0 0,0 52.52037744306649,92.39780465410908 Z" fill="hsl(22.000000000000004, 4%, 5%)"/><path d="M44.78010362200774,101.81632162497291 A44.5,44.5 0 0,1 42.61246478222732,100.96246597863359 L47.00818997773165,90.60678637729364 A33.25,33.25 0 0,0 48.627830234421516,91.24477964113146 Z" fill="hsl(22.000000000000004, 4%, 5%)"/><path d="M39.79742276159017,99.64979032638237 A44.5,44.5 0 0,1 37.750000000000014,98.53813046840753 L43.37500000000001,88.79534467583258 A33.25,33.25 0 0,0 44.90481588366007,89.62596692926323 Z" fill="hsl(22.000000000000004, 4%, 5%)"/><path d="M35.11591579555177,96.89217197869937 A44.5,44.5 0 0,1 33.21923146973385,95.53928019710452 L39.98965048019439,86.55463070907248 A33.25,33.25 0 0,0 41.40683595959767,87.56549928745514 Z" fill="hsl(22.000000000000004, 4%, 5%)"/><path d="M30.805373209922433,93.58457631991337 A44.5,44.5 0 0,1 29.087702514574616,92.01062111506997 L36.902609182238336,83.91804836126015 A33.25,33.25 0 0,0 38.18603728606564,85.09409354240717 Z" fill="hsl(22.000000000000004, 4%, 5%)"/><path d="M26.930055266255962,89.77631198296919 A44.5,44.5 0 0,1 25.417004715164794,88.00475740171777 L34.159896781555716,80.92490300240709 A33.25,33.25 0 0,0 35.29043455287665,82.24859266143204 Z" fill="hsl(22.000000000000004, 4%, 5%)"/><path d="M23.54773402913986,85.52415141762154 A44.5,44.5 0 0,1 22.261859721039045,83.58140725837762 L31.802400802798836,77.61981553575407 A33.25,33.25 0 0,0 32.76319452739102,79.07141650867229 Z" fill="hsl(22.000000000000004, 4%, 5%)"/><path d="M20.708832117777746,80.89148454397214 A44.5,44.5 0 0,1 19.669303476869075,78.80651264746112 L29.86526608103139,74.05205720287826 A33.25,33.25 0 0,0 30.64199253744068,75.60992946263087 Z" fill="hsl(22.000000000000004, 4%, 5%)"/><path d="M18.455671020874526,75.94737375476586 A44.5,44.5 0 0,1 17.67798502486567,73.75125624968517 L28.377370833186145,70.27481506296701 A33.25,33.25 0 0,0 28.958450818968043,71.91573432238123 Z" fill="hsl(22.000000000000004, 4%, 5%)"/><path d="M16.821840180718155,70.76552435418522 A44.5,44.5 0 0,1 16.317590336578952,68.49100029425625 L27.36089615036517,66.34439909627012 A33.25,33.25 0 0,0 27.73766710132312,68.04390302868896 Z" fill="hsl(22.000000000000004, 4%, 5%)"/><path d="M15.83169625196117,65.42318578152907 A44.5,44.5 0 0,1 15.608399763437824,63.104163081613585 L26.830995328860844,62.31940275199217 A33.25,33.25 0 0,0 26.997840457926046,64.05215566822116 Z" fill="hsl(22.000000000000004, 4%, 5%)"/><path d="M15.5,60.00000000000001 A44.5,44.5 0 0,1 15.560985703421466,57.67104994718901 L26.79556796941042,58.25982945492213 A33.25,33.25 0 0,0 26.75,60.00000000000001 Z" fill="hsl(22.000000000000004, 4%, 5%)"/><path d="M15.83169625196117,54.57681421847094 A44.5,44.5 0 0,1 16.176054990956743,52.272656093821595 L27.255142212344083,54.22619809257456 A33.25,33.25 0 0,0 26.99784045792604,55.94784433177885 Z" fill="hsl(22.000000000000004, 4%, 5%)"/><path d="M16.821840180718155,49.2344756458148 A44.5,44.5 0 0,1 17.44443835964492,46.98945913983822 L28.202866864229073,50.278640817969006 A33.25,33.25 0 0,0 27.73766710132312,51.956096971311055 Z" fill="hsl(22.000000000000004, 4%, 5%)"/><path d="M18.455671020874526,44.05262624523413 A44.5,44.5 0 0,1 19.34722713490426,41.900219383126895 L29.62461353338352,46.476006617729645 A33.25,33.25 0 0,0 28.958450818968043,48.08426567761876 Z" fill="hsl(22.000000000000004, 4%, 5%)"/><circle cx="60.0" cy="60.0" r="47.6875" fill="none" stroke="hsl(22.000000000000004, 89.4%, 49.192%)" stroke-width="4.375"/></svg>